<?xml version="1.0" encoding="UTF-8"?>
<svg version="1.1" xmlns="http://www.w3.org/2000/svg" width="400" height="400">
<path d="M0 0 C132 0 264 0 400 0 C400 132 400 264 400 400 C268 400 136 400 0 400 C0 268 0 136 0 0 Z " fill="#2FA5C8" transform="translate(0,0)"/>
<path d="M0 0 C132 0 264 0 400 0 C400 49.5 400 99 400 150 C268 150 136 150 0 150 C0 100.5 0 51 0 0 Z " fill="#FEFEFE" transform="translate(0,250)"/>
<path d="M0 0 C61.38 0 122.76 0 186 0 C186 3.63 186 7.26 186 11 C186.12776449 13.07519394 186.28833705 15.14904711 186.50317383 17.21704102 C186.61371094 18.3089122 186.72424805 19.40078339 186.83813477 20.52574158 C186.95987061 21.67353592 187.08160645 22.82133026 187.20703125 24.00390625 C187.33223145 25.22868179 187.45743164 26.45345734 187.58642578 27.71534729 C187.92166736 30.99030707 188.26145314 34.26475898 188.60266495 37.53910065 C188.95536222 40.94009313 189.30044822 44.34185306 189.64526367 47.74365234 C189.71361325 48.41791637 189.78196283 49.0921804 189.85238361 49.78687668 C189.98966013 51.14165028 190.12689058 52.49642855 190.26407433 53.85121155 C190.46802545 55.86394341 190.67252742 57.87661867 190.87715149 59.88928223 C194.33285206 93.92602348 197.69922518 127.14501716 193.01171875 161.22265625 C192.06965196 168.20573185 191.38048349 175.18869447 190.79562378 182.20993042 C190.55594995 185.0755995 190.30569756 187.94032216 190.05632019 190.80516052 C189.85107057 193.16382376 189.64684142 195.52257346 189.44287109 197.88134766 C189.33576813 199.11887787 189.33576813 199.11887787 189.22650146 200.38140869 C189.07009587 202.18961926 188.91389967 203.99784795 188.75787354 205.80609131 C188.24729368 211.71362783 187.72736355 217.62023245 187.19671631 223.52600098 C187.02429278 225.46264966 186.85504781 227.39958403 186.68902588 229.33679199 C186.45554738 232.05732918 186.21141894 234.77671669 185.96484375 237.49609375 C185.89719315 238.31329391 185.82954254 239.13049408 185.75984192 239.97245789 C185.41061254 243.70576066 185.11741616 245.82387576 183 249 C180.12670898 249.32470703 180.12670898 249.32470703 176.49609375 249.2578125 C175.19865234 249.24363281 173.90121094 249.22945312 172.56445312 249.21484375 C171.18878504 249.18568922 169.81313376 249.15573138 168.4375 249.125 C165.74872706 249.07896261 163.06006024 249.04257785 160.37109375 249.0078125 C158.5756311 248.97131592 158.5756311 248.97131592 156.74389648 248.93408203 C154.08783033 248.68219616 154.08783033 248.68219616 153 250 C151.02571766 250.0966888 149.04792169 250.12187075 147.0712738 250.12025452 C145.14220389 250.12232076 145.14220389 250.12232076 143.17416286 250.12442875 C141.72995927 250.12088148 140.2857559 250.11724358 138.84155273 250.11352539 C137.30954777 250.11321928 135.77754266 250.11335216 134.24553776 250.11389065 C130.12878055 250.11411717 126.01205219 250.1083054 121.89530182 250.10128021 C118.03766281 250.09560125 114.18003096 250.09531796 110.3223877 250.09460449 C99.02742128 250.08934924 87.73246028 250.07538819 76.4375 250.0625 C38.6009375 250.0315625 38.6009375 250.0315625 0 250 C0 167.5 0 85 0 0 Z " fill="#2D3984" transform="translate(0,0)"/>
<path d="M0 0 C25.41 0 50.82 0 77 0 C77 82.5 77 165 77 250 C42.02 250 7.04 250 -29 250 C-29 249.67 -29 249.34 -29 249 C-25.37 249 -21.74 249 -18 249 C-18.33 247.35 -18.66 245.7 -19 244 C-19.08902103 242.59638741 -19.13755906 241.18961476 -19.14526367 239.78320312 C-19.15164352 238.98466919 -19.15802338 238.18613525 -19.16459656 237.36340332 C-19.16570938 236.51129272 -19.1668222 235.65918213 -19.16796875 234.78125 C-19.17129715 233.88692261 -19.17462555 232.99259521 -19.17805481 232.07116699 C-19.1831096 230.17830924 -19.18546358 228.28544262 -19.18530273 226.39257812 C-19.18747143 223.53760467 -19.20559314 220.68302925 -19.22460938 217.828125 C-19.25520928 207.99308014 -18.77792399 198.69761779 -17 189 C-16.47003486 185.02672724 -16.02013067 181.04468969 -15.5625 177.0625 C-14.63950801 169.19629052 -13.66135651 161.34356196 -12.5625 153.5 C-11.15108492 143.41350006 -9.94085682 133.30542739 -8.74102783 123.19213867 C-7.77910992 115.1028389 -6.74282363 107.04225357 -5.4375 99 C-0.36096591 66.10267776 -0.4004954 33.24111792 0 0 Z " fill="#8ABB65" transform="translate(323,0)"/>
<path d="M0 0 C1.11696762 0.00222061 2.23393524 0.00444122 3.38475037 0.00672913 C4.64598221 0.00680466 5.90721405 0.00688019 7.20666504 0.00695801 C8.59341979 0.01206542 9.98017414 0.01728142 11.3669281 0.02259827 C12.77797394 0.0244625 14.18902042 0.02588638 15.60006714 0.02688599 C19.3204272 0.03071072 23.04074845 0.04054062 26.76109314 0.05158997 C30.55482966 0.06180504 34.34857243 0.06638381 38.14231873 0.07142639 C45.59090416 0.08216294 53.03945758 0.09923882 60.48802185 0.12025452 C60.8806411 64.84589785 60.8806411 64.84589785 59.55052185 87.49525452 C59.48517242 88.63068192 59.48517242 88.63068192 59.41850281 89.78904724 C58.72850218 101.39881353 58.72850218 101.39881353 57.48802185 105.12025452 C57.2871401 108.01760872 57.135556 110.89899163 57.0231781 113.79994202 C56.98494431 114.68134857 56.94671051 115.56275513 56.90731812 116.47087097 C56.78429061 119.31217534 56.66678624 122.1536659 56.55052185 124.99525452 C56.04769611 137.2471131 55.41655426 149.4720929 54.5231781 161.70228577 C53.30251222 178.61570556 52.62836785 195.54548554 51.96000671 212.48799133 C51.79530954 216.63962452 51.62579891 220.79106139 51.45677185 224.94252014 C51.12931727 233.00158688 50.80691571 241.06084449 50.48802185 249.12025452 C39.2203016 249.89543869 28.02677916 250.25977292 16.7341156 250.21791077 C15.21141609 250.21603802 13.68871596 250.21461819 12.16601562 250.21362305 C8.22230772 250.20986515 4.2786386 250.20009528 0.33494568 250.18891907 C-3.71493506 250.17855738 -7.76482226 250.17409433 -11.81471252 250.16908264 C-19.71381857 250.15846453 -27.61289349 250.14147271 -35.51197815 250.12025452 C-35.18197815 249.13025452 -34.85197815 248.14025452 -34.51197815 247.12025452 C-34.51197815 247.78025452 -34.51197815 248.44025452 -34.51197815 249.12025452 C-24.94197815 248.79025452 -15.37197815 248.46025452 -5.51197815 248.12025452 C-4.24041697 245.57713215 -4.15329012 243.45122822 -3.87940979 240.61439514 C-3.70901939 238.87857178 -3.70901939 238.87857178 -3.53518677 237.10768127 C-3.41537949 235.84339294 -3.2955722 234.57910461 -3.1721344 233.27650452 C-3.04511642 231.96484314 -2.91809845 230.65318176 -2.78723145 229.30177307 C-2.51661983 226.50419676 -2.24875968 223.70637468 -1.98292542 220.90834045 C-1.65000438 217.40536306 -1.31155819 213.9029501 -0.97112465 210.4006958 C0.46244721 195.63306658 1.81474977 180.86529205 2.84494019 166.0627594 C2.91608536 165.07046326 2.98723053 164.07816711 3.06053162 163.05580139 C3.11959183 162.19434509 3.17865204 161.33288879 3.23950195 160.44532776 C3.47423054 158.24928166 3.9135947 156.24861745 4.48802185 154.12025452 C6.12692772 142.84734345 6.76188885 131.41386737 6.29270935 120.03822327 C6.24920349 118.9573494 6.20569763 117.87647552 6.16087341 116.7628479 C5.33256157 99.2846773 3.46393435 81.86726451 1.76914978 64.45680237 C1.29726337 59.59061459 0.83466275 54.72354379 0.37083435 49.85658264 C-0.30837707 42.74800415 -0.98985217 35.6396507 -1.6799469 28.53211975 C-1.78440628 27.44970757 -1.78440628 27.44970757 -1.89097595 26.34542847 C-2.32209935 21.9215226 -2.79882869 17.50475421 -3.30950928 13.08929539 C-3.56606202 10.59428055 -3.64491319 8.12772826 -3.63697815 5.62025452 C-3.64084534 4.36728577 -3.64084534 4.36728577 -3.64479065 3.08900452 C-3.44256713 0.09133818 -3.01874668 0.14451476 0 0 Z " fill="#235BA2" transform="translate(188.51197814941406,-0.1202545166015625)"/>
<path d="M0 0 C9.24 0 18.48 0 28 0 C29.39720069 4.79127209 30.79329577 9.58285606 32.1875 14.375 C32.39352844 15.08295715 32.59955688 15.79091431 32.81182861 16.52032471 C35.41073891 25.45603241 37.99584732 34.39383304 40.41479492 43.38037109 C41.53845632 47.51165154 42.82626062 51.56252128 44.19677734 55.61621094 C48.13754373 67.31154315 51.84030374 79.07485287 55.00195312 91.00488281 C56.21376109 95.46870658 57.60406063 99.83683193 59.12109375 104.20703125 C59.6780896 105.81698975 59.6780896 105.81698975 60.24633789 107.45947266 C60.9831665 109.56683754 61.7330977 111.66967968 62.49780273 113.76708984 C64.43504289 119.30535555 65.5320853 123.16316176 64 129 C63.83032715 129.671521 63.6606543 130.34304199 63.48583984 131.03491211 C62.86604929 133.41199424 62.18956062 135.7672287 61.5 138.125 C61.24226807 139.01807861 60.98453613 139.91115723 60.71899414 140.83129883 C58.0262267 150.07404112 55.13866597 159.25633875 52.26123047 168.44287109 C49.88007019 176.0725097 47.62403428 183.71952823 45.53320312 191.43334961 C44.40599078 195.58421945 43.16761972 199.65920262 41.75 203.71875 C40.33536299 208.02160424 39.17239559 212.4009798 37.96484375 216.765625 C37 220 37 220 36 222.4375 C34.44091707 226.43265 33.5687664 230.59993036 32.58789062 234.765625 C31.32437311 240.00091669 29.72077641 244.83767076 28 250 C18.76 250 9.52 250 0 250 C0 167.5 0 85 0 0 Z " fill="#D41317" transform="translate(0,0)"/>
<path d="M0 0 C7.26 0 14.52 0 22 0 C19.125 11.625 19.125 11.625 18 15 C17.89099221 17.52110277 17.83632957 20.01367501 17.83203125 22.53515625 C17.82775116 23.28125153 17.82347107 24.0273468 17.81906128 24.79605103 C17.80904033 27.21826123 17.80901349 29.64027292 17.8125 32.0625 C17.81390488 33.29874619 17.81390488 33.29874619 17.81533813 34.55996704 C17.86344888 53.9737175 20.34081099 71.76178311 24.32788086 90.77099609 C26.14441073 99.49799359 27.86432335 108.24406956 29.53515625 117 C29.66123764 117.65962234 29.78731903 118.31924469 29.91722107 118.99885559 C30.43001076 121.68267164 30.94269041 124.36649454 31.45043945 127.05126953 C31.82992455 129.0555821 32.21346026 131.05908582 32.59765625 133.0625 C32.81945557 134.22910156 33.04125488 135.39570313 33.26977539 136.59765625 C34.02588035 140.12058462 35.00495981 143.5379961 36 147 C36.79022637 150.73197663 37.41791635 154.49033718 38.0625 158.25 C38.23587891 159.22324219 38.40925781 160.19648438 38.58789062 161.19921875 C39.59232168 166.99490139 40.30148332 172.74491135 40.78295898 178.60644531 C41.03250884 181.3585114 41.47402127 184.03792218 42 186.75 C44.46085405 201.02246929 44.12639122 215.50769595 44.0625 229.9375 C44.041875 236.558125 44.02125 243.17875 44 250 C19.91 250 -4.18 250 -29 250 C-29 249.67 -29 249.34 -29 249 C-25.37 249 -21.74 249 -18 249 C-18.33 247.35 -18.66 245.7 -19 244 C-19.08902103 242.59638741 -19.13755906 241.18961476 -19.14526367 239.78320312 C-19.15164352 238.98466919 -19.15802338 238.18613525 -19.16459656 237.36340332 C-19.16570938 236.51129272 -19.1668222 235.65918213 -19.16796875 234.78125 C-19.17129715 233.88692261 -19.17462555 232.99259521 -19.17805481 232.07116699 C-19.1831096 230.17830924 -19.18546358 228.28544262 -19.18530273 226.39257812 C-19.18747143 223.53760467 -19.20559314 220.68302925 -19.22460938 217.828125 C-19.25520928 207.99308014 -18.77792399 198.69761779 -17 189 C-16.47003486 185.02672724 -16.02013067 181.04468969 -15.5625 177.0625 C-14.63950801 169.19629052 -13.66135651 161.34356196 -12.5625 153.5 C-11.15108492 143.41350006 -9.94085682 133.30542739 -8.74102783 123.19213867 C-7.77910992 115.1028389 -6.74282363 107.04225357 -5.4375 99 C-0.36998836 66.16114568 -0.3173254 33.15436796 0 0 Z " fill="#009A66" transform="translate(323,0)"/>
<path d="M0 0 C15.51 0 31.02 0 47 0 C47.71181207 54.53271353 47.71181207 54.53271353 45.125 79.8125 C45.03786743 80.67083435 44.95073486 81.5291687 44.86096191 82.41351318 C44.0128834 90.5716812 42.99287002 98.66381052 41.42871094 106.72045898 C40.8108228 110.00589268 40.42964869 113.30317853 40.0625 116.625 C39.89751696 118.08077246 39.73212504 119.53649861 39.56640625 120.9921875 C39.47762207 121.78077148 39.38883789 122.56935547 39.29736328 123.38183594 C38.71531076 128.50657424 38.10801693 133.6282886 37.5 138.75 C37.32223022 140.27488037 37.32223022 140.27488037 37.14086914 141.83056641 C36.53274612 146.95234119 35.84982667 152.04743807 35.03515625 157.140625 C33.73812531 165.39670203 32.85154853 173.69472115 31.9375 182 C31.67736139 184.35791378 31.41638008 186.71571885 31.15272522 189.07324219 C30.99034358 190.52548363 30.82993434 191.9779475 30.67185974 193.43066406 C30.37079534 196.12558931 30.04784406 198.77685993 29.47903442 201.42973328 C29.01424312 203.92357831 28.87934106 206.16607708 28.88647461 208.69848633 C28.88658791 210.0493206 28.88658791 210.0493206 28.88670349 211.42744446 C28.89186478 212.3859581 28.89702606 213.34447174 28.90234375 214.33203125 C28.90446617 215.81965218 28.90446617 215.81965218 28.90663147 217.33732605 C28.91221582 220.49574843 28.92476548 223.65409915 28.9375 226.8125 C28.94251702 228.95768127 28.94707958 231.10286365 28.95117188 233.24804688 C28.96218013 238.4987254 28.97943403 243.74935056 29 249 C25.37 249 21.74 249 18 249 C17.95512451 247.73857178 17.91024902 246.47714355 17.86401367 245.17749023 C16.96529347 220.34947224 15.80665721 195.69307251 13 171 C12.80982156 169.2384293 12.62089747 167.47672243 12.43359375 165.71484375 C12.05260382 162.16223164 11.65229072 158.61237975 11.23828125 155.06347656 C10.97460258 152.7800625 10.72148089 150.49558807 10.46875 148.2109375 C10.29189851 146.64059887 10.11482229 145.07028553 9.9375 143.5 C9.85814209 142.77441895 9.77878418 142.04883789 9.69702148 141.30126953 C9.29674596 137.52943392 9.29674596 137.52943392 8 134 C7.68224278 130.39875155 7.48833427 126.79668305 7.28125 123.1875 C7.20574918 120.10577487 7.20574918 120.10577487 6 118 C5.74845396 116.33392476 5.54580214 114.66035308 5.36743164 112.98486328 C5.25383804 111.93420685 5.14024445 110.88355042 5.02320862 109.80105591 C4.8434977 108.07808792 4.8434977 108.07808792 4.66015625 106.3203125 C4.53313828 105.12437469 4.4061203 103.92843689 4.2752533 102.69625854 C4.00519677 100.14243819 3.73715901 97.58840369 3.47094727 95.03417969 C3.073515 91.23042274 2.6671623 87.42770081 2.25976562 83.625 C0.92822073 71.04387809 -0.26482673 58.46253018 -1.1796875 45.84375 C-1.26173935 44.7222757 -1.3437912 43.60080139 -1.42832947 42.44534302 C-3.82566496 7.65132991 -3.82566496 7.65132991 0 0 Z " fill="#00A9D0" transform="translate(276,0)"/>
<path d="M0 0 C1.084021 0.00523682 2.16804199 0.01047363 3.28491211 0.01586914 C4.45473633 0.0190918 5.62456055 0.02231445 6.82983398 0.02563477 C8.0615332 0.03401367 9.29323242 0.04239258 10.56225586 0.05102539 C12.41560547 0.05779297 12.41560547 0.05779297 14.30639648 0.06469727 C17.37089703 0.07652931 20.43530307 0.09301366 23.49975586 0.11352539 C23.89237511 64.83916872 23.89237511 64.83916872 22.56225586 87.48852539 C22.51868958 88.24547699 22.47512329 89.00242859 22.43023682 89.78231812 C21.74023619 101.39208441 21.74023619 101.39208441 20.49975586 105.11352539 C20.29887411 108.01087959 20.14729001 110.89226251 20.03491211 113.79321289 C19.99667831 114.67461945 19.95844452 115.556026 19.91905212 116.46414185 C19.79602461 119.30544621 19.67852025 122.14693677 19.56225586 124.98852539 C19.05943012 137.24038397 18.42828827 149.46536377 17.53491211 161.69555664 C16.31424623 178.60897643 15.64010186 195.53875641 14.97174072 212.48126221 C14.80704355 216.63289539 14.63753292 220.78433226 14.46850586 224.93579102 C14.14105128 232.99485776 13.81864972 241.05411537 13.49975586 249.11352539 C-4.67222663 250.27256537 -4.67222663 250.27256537 -13.25415039 250.21118164 C-14.05134995 250.20976669 -14.8485495 250.20835175 -15.66990662 250.20689392 C-18.13422967 250.20144366 -20.59845014 250.1889249 -23.06274414 250.17602539 C-24.76782092 250.17099087 -26.47289918 250.16643148 -28.17797852 250.16235352 C-32.28543792 250.15152423 -36.39282387 250.13437198 -40.50024414 250.11352539 C-40.00524414 249.12352539 -40.00524414 249.12352539 -39.50024414 248.11352539 C-22.17524414 248.60852539 -22.17524414 248.60852539 -4.50024414 249.11352539 C-4.50548096 245.61573486 -4.51071777 242.11794434 -4.51611328 238.51416016 C-4.6027712 176.65866106 -4.63206678 114.80488883 -4.09452438 52.95118332 C-4.06266775 49.22960156 -4.03273458 45.50800835 -4.00320435 41.78640747 C-3.95661518 35.98668199 -3.90447862 30.18703471 -3.84736633 24.38740349 C-3.82706947 22.27051138 -3.8083037 20.15360397 -3.79115295 18.03668404 C-3.76739922 15.17697143 -3.73743024 12.31739572 -3.70556641 9.45776367 C-3.69693368 8.19588651 -3.69693368 8.19588651 -3.68812656 6.90851688 C-3.60087735 0.16350044 -3.60087735 0.16350044 0 0 Z " fill="#2B7BB3" transform="translate(225.500244140625,-0.113525390625)"/>
<path d="M0 0 C9.24 0 18.48 0 28 0 C28.33 2.64 28.66 5.28 29 8 C28.67 7.01 28.34 6.02 28 5 C27.34 5 26.68 5 26 5 C25.88897949 6.12398193 25.77795898 7.24796387 25.66357422 8.40600586 C24.32532508 21.89988382 22.92968964 35.38748962 21.51251221 48.87329102 C21.25084315 51.36444313 20.98974882 53.85565566 20.72918701 56.34692383 C18.1602269 80.89938632 18.1602269 80.89938632 16.71875 92.90234375 C16.62342987 93.70217178 16.52810974 94.50199982 16.42990112 95.32606506 C16.00613376 98.8711574 15.57190542 102.41394867 15.11767578 105.95532227 C13.56041036 118.76797912 13.22894469 131.19335561 15.47412109 143.93310547 C16.36220401 149.11235228 16.80562518 154.33459009 17.3125 159.5625 C20.00208935 186.33142487 22.75698103 213.15178802 26.69042969 239.77050781 C27.16322088 243.17549927 27.5736109 246.58888718 28 250 C18.76 250 9.52 250 0 250 C0 167.5 0 85 0 0 Z " fill="#AF1817" transform="translate(0,0)"/>
<path d="M0 0 C19.47 0 38.94 0 59 0 C58.32126023 10.18109654 57.37395737 19.38994898 55.3125 29.25 C54.75784447 31.98830089 54.21213303 34.72834695 53.66796875 37.46875 C53.45817383 38.52107819 53.45817383 38.52107819 53.24414062 39.59466553 C51.72273967 47.28807358 50.42072878 55.01599097 49.125 62.75 C45.68557894 83.21609533 41.84296034 103.60647519 38 124 C35.77507775 121.26339611 34.43567646 118.89669324 33.38671875 115.53515625 C33.11142334 114.6635083 32.83612793 113.79186035 32.55249023 112.89379883 C32.26704346 111.95947021 31.98159668 111.0251416 31.6875 110.0625 C31.38336182 109.08756592 31.07922363 108.11263184 30.76586914 107.1081543 C28.46400545 99.67039585 26.31062976 92.19321954 24.20214844 84.69873047 C21.67064458 75.73397079 18.84669432 66.86870278 16 58 C11.00470943 42.43134439 6.51847686 26.71215657 2 11 C1.6289917 9.78513916 1.2579834 8.57027832 0.87573242 7.31860352 C0 4 0 4 0 0 Z " fill="#893170" transform="translate(28,0)"/>
<path d="M0 0 C0.33 0 0.66 0 1 0 C1 69.3 1 138.6 1 210 C-7.25 210 -15.5 210 -24 210 C-28.42269882 198.94325295 -30.33361042 191.22155307 -30.1875 179.625 C-30.18685547 178.66078125 -30.18621094 177.6965625 -30.18554688 176.703125 C-30.13074167 167.61764016 -29.48806386 158.74584197 -27.5859375 149.85546875 C-26.89287957 146.47796644 -26.32506093 143.08712491 -25.75 139.6875 C-24.33620233 131.53286638 -22.71647941 123.42144973 -21.0625 115.3125 C-20.82176758 114.11391357 -20.58103516 112.91532715 -20.33300781 111.68041992 C-18.83239898 104.40107208 -16.97508072 97.31499839 -14.88110352 90.18530273 C-13.75338291 86.10844743 -13.02694619 82.05793155 -12.4375 77.875 C-11.48911007 71.67089423 -10.23713723 65.67609842 -8.62109375 59.60546875 C-7.86385614 56.42888081 -7.529742 53.30607676 -7.24609375 50.05859375 C-6.93083835 47.42145729 -6.17131454 44.93938432 -5.47265625 42.3828125 C-4.60267328 37.99694793 -4.48222429 33.53178507 -4.24609375 29.07421875 C-4 26 -4 26 -3 23 C-2.79861265 21.39851606 -2.63637356 19.79191895 -2.5 18.18359375 C-2.4175 17.25482422 -2.335 16.32605469 -2.25 15.36914062 C-2.08300262 13.41083547 -1.91633726 11.45250196 -1.75 9.49414062 C-1.6675 8.56666016 -1.585 7.63917969 -1.5 6.68359375 C-1.4278125 5.83337646 -1.355625 4.98315918 -1.28125 4.10717773 C-1 2 -1 2 0 0 Z " fill="#179A39" transform="translate(399,40)"/>
<path d="M0 0 C0.66 0 1.32 0 2 0 C5.88202959 22.37472041 9.63888309 44.76635625 13.22802734 67.18994141 C13.89723577 71.36726507 14.57451764 75.54324712 15.25320435 79.71903992 C15.80993467 83.1512721 16.36192843 86.58425535 16.9128418 90.01742554 C17.17472856 91.64419911 17.43833762 93.27069656 17.70385742 94.8968811 C18.07456973 97.17005352 18.43839243 99.44423773 18.80078125 101.71875 C19.00872314 103.00716797 19.21666504 104.29558594 19.4309082 105.62304688 C20.1807781 111.390386 20.55394207 117.20124688 21 123 C2.19 123 -16.62 123 -36 123 C-35.29863622 118.09045351 -34.66605866 114.57061774 -33.0625 110.0625 C-31.85690233 106.58062947 -30.72395042 103.14846657 -29.875 99.5625 C-29 96 -29 96 -28.0625 93.74609375 C-26.53268724 89.79220268 -25.64226813 85.70401204 -24.67578125 81.5859375 C-23.37355628 76.1864681 -21.77217247 70.9025285 -20.11962891 65.60058594 C-18.93764459 61.79947284 -17.7816997 57.99089179 -16.6328125 54.1796875 C-16.22083469 52.81517039 -15.80880603 51.45066864 -15.39672852 50.08618164 C-15.18879669 49.39751007 -14.98086487 48.7088385 -14.76663208 47.9992981 C-11.30980241 36.55452013 -7.81348323 25.12568138 -4.18359375 13.734375 C-2.73718175 9.17077806 -1.35486924 4.59150132 0 0 Z " fill="#89316F" transform="translate(64,127)"/>
<path d="M0 0 C1.49249268 0.01571045 1.49249268 0.01571045 3.01513672 0.03173828 C4.6296875 0.04140625 4.6296875 0.04140625 6.27685547 0.05126953 C7.40478516 0.06802734 8.53271484 0.08478516 9.69482422 0.10205078 C11.39832031 0.11558594 11.39832031 0.11558594 13.13623047 0.12939453 C15.94763721 0.1530198 18.7586272 0.18596065 21.56982422 0.22705078 C21.61957412 5.75885739 21.6557084 11.2905313 21.6796875 16.82250977 C21.68969295 18.7011136 21.70330154 20.57970207 21.72070312 22.45825195 C21.74519302 25.17158826 21.75636212 27.88471716 21.76513672 30.59814453 C21.77545929 31.42664413 21.78578186 32.25514374 21.79641724 33.10874939 C21.79734563 38.02627893 21.25324406 42.45353477 20.03746033 47.22221375 C19.31331918 50.32673234 19.17210978 53.4255461 19.00732422 56.60205078 C18.66969452 62.92743989 18.66969452 62.92743989 17.56982422 66.22705078 C17.36938774 67.75555295 17.20676088 69.28921297 17.06982422 70.82470703 C16.98732422 71.70835938 16.90482422 72.59201172 16.81982422 73.50244141 C16.65280996 75.36438943 16.48614473 77.22636879 16.31982422 79.08837891 C16.19607422 80.41192383 16.19607422 80.41192383 16.06982422 81.76220703 C15.99763672 82.57052979 15.92544922 83.37885254 15.85107422 84.21166992 C15.56982422 86.22705078 15.56982422 86.22705078 14.56982422 88.22705078 C14.30818152 89.60125616 14.0857979 90.98309276 13.88623047 92.36767578 C13.763125 93.19138672 13.64001953 94.01509766 13.51318359 94.86376953 C13.2615883 96.59010029 13.01155851 98.31666001 12.76318359 100.04345703 C12.07117322 104.65446913 11.07120785 108.80192007 9.56982422 113.22705078 C8.99695364 116.87114415 8.56509367 120.5170915 8.13232422 124.18017578 C7.56982422 127.22705078 7.56982422 127.22705078 5.56982422 129.22705078 C-16.6351303 41.97926488 -16.6351303 41.97926488 -5.93017578 6.66455078 C-5.57439453 5.45605469 -5.57439453 5.45605469 -5.21142578 4.22314453 C-4.06004447 1.28136529 -3.18469846 0.29754567 0 0 Z " fill="#7AB55D" transform="translate(378.43017578125,-0.22705078125)"/>
<path d="M0 0 C4.99413733 3.53953423 8.80978152 7.2129412 10.6875 13.1875 C11.61177635 21.50598713 11.44941811 28.64182102 7 36 C1.76764535 41.69558122 -3.43961596 45.5973515 -11.265625 46.1640625 C-18.7708809 46.41730733 -23.99653556 45.06120109 -30.1875 40.8125 C-36.06503918 34.93496082 -39.05986013 29.18984426 -39.375 20.875 C-39.29077196 13.86535547 -36.98373102 8.43273908 -32.390625 3.1484375 C-23.05487778 -5.54494179 -10.85692718 -6.54638466 0 0 Z " fill="#F7F7F7" transform="translate(124,304)"/>
<path d="M0 0 C0.33 0 0.66 0 1 0 C1 69.3 1 138.6 1 210 C0.01 210 -0.98 210 -2 210 C-1.99476318 209.37770508 -1.98952637 208.75541016 -1.98413086 208.11425781 C-1.69980565 168.88457645 -5.50544475 129.69356651 -14.60571289 91.45483398 C-15.08306037 88.48286561 -14.40768378 86.21988636 -13.6015625 83.35546875 C-12.9151678 80.66783234 -12.48534106 77.9913001 -12.0625 75.25 C-11.39199723 71.0300897 -10.52200222 66.94519051 -9.4375 62.8125 C-8.32328088 58.53946969 -7.62970194 54.45051613 -7.24609375 50.05859375 C-6.93083835 47.42145729 -6.17131454 44.93938432 -5.47265625 42.3828125 C-4.60267328 37.99694793 -4.48222429 33.53178507 -4.24609375 29.07421875 C-4 26 -4 26 -3 23 C-2.79861265 21.39851606 -2.63637356 19.79191895 -2.5 18.18359375 C-2.4175 17.25482422 -2.335 16.32605469 -2.25 15.36914062 C-2.08300262 13.41083547 -1.91633726 11.45250196 -1.75 9.49414062 C-1.6675 8.56666016 -1.585 7.63917969 -1.5 6.68359375 C-1.4278125 5.83337646 -1.355625 4.98315918 -1.28125 4.10717773 C-1 2 -1 2 0 0 Z " fill="#288C3F" transform="translate(399,40)"/>
<path d="M0 0 C4.7344316 1.91391916 7.72684393 5.45368786 10 10 C10.65630014 17.69269835 10.86170293 23.78782403 6 30 C2.03995125 33.60004431 -1.60834024 34.30879192 -6.94140625 34.2109375 C-10.20463408 33.87656501 -12.30306116 32.83882194 -15 31 C-19.7797852 24.92838096 -20.6898173 19.54966714 -20 12 C-18.62462418 7.41541394 -16.83488173 3.83560568 -12.94140625 0.87890625 C-8.81071188 -0.99112641 -4.40124206 -0.61240524 0 0 Z " fill="#EA071B" transform="translate(210,308)"/>
<path d="M0 0 C4.7953125 -0.1546875 4.7953125 -0.1546875 9.6875 -0.3125 C11.18543091 -0.38078003 11.18543091 -0.38078003 12.71362305 -0.45043945 C17.35342082 -0.52289977 19.33607246 -0.52929078 23.08203125 2.45703125 C23.71496094 3.29621094 24.34789062 4.13539063 25 5 C25.33 5.33 25.66 5.66 26 6 C26.26293056 10.03160191 26.29404844 11.55892734 24 15 C23.34 15 22.68 15 22 15 C22 15.66 22 16.32 22 17 C22.639375 17.309375 23.27875 17.61875 23.9375 17.9375 C26 19 26 19 27 20 C27.90979468 26.70973574 27.90979468 26.70973574 25.78686523 29.72045898 C21.48859173 33.6571307 18.33961525 34.65002215 12.53344727 34.54052734 C11.55303467 34.48590332 10.57262207 34.4312793 9.5625 34.375 C4.8290625 34.189375 4.8290625 34.189375 0 34 C0 22.78 0 11.56 0 0 Z " fill="#EA0F21" transform="translate(160,308)"/>
<path d="M0 0 C0 2.97 0 5.94 0 9 C5.61 9 11.22 9 17 9 C17 6.03 17 3.06 17 0 C22.07167111 2.53583556 24.78895136 5.81874439 27 11 C28.0369314 17.41805962 27.07883221 21.99771584 23.38671875 27.30859375 C22.00032512 28.99960345 20.64538377 30.55753219 19 32 C18.34 32 17.68 32 17 32 C17 29.03 17 26.06 17 23 C11.39 23 5.78 23 0 23 C0 25.97 0 28.94 0 32 C-4.6860706 30.82848235 -6.43636335 28.87716073 -9 25 C-11.20985262 20.05413938 -12.14280166 15.13975919 -10.2421875 9.91796875 C-5.56841373 0 -5.56841373 0 0 0 Z " fill="#5C5C5C" transform="translate(102,309)"/>
<path d="M0 0 C2.97 0 5.94 0 9 0 C9 10.89 9 21.78 9 33 C6.03 33 3.06 33 0 33 C0 28.71 0 24.42 0 20 C-3.3 20 -6.6 20 -10 20 C-10 24.29 -10 28.58 -10 33 C-12.64 33 -15.28 33 -18 33 C-18 22.44 -18 11.88 -18 1 C-15.36 1 -12.72 1 -10 1 C-10 4.63 -10 8.26 -10 12 C-6.7 12 -3.4 12 0 12 C0 8.04 0 4.08 0 0 Z " fill="#EA071A" transform="translate(301,308)"/>
<path d="M0 0 C3.1875 1.25 3.1875 1.25 5 3 C5 4.32 5 5.64 5 7 C4.34 7.66 3.68 8.32 3 9 C0.3984375 8.9765625 0.3984375 8.9765625 -2.625 8.625 C-3.62789062 8.51414062 -4.63078125 8.40328125 -5.6640625 8.2890625 C-6.82035156 8.14597656 -6.82035156 8.14597656 -8 8 C-7.8760595 9.97947498 -7.8760595 9.97947498 -7 12 C-4.81461725 12.99927996 -4.81461725 12.99927996 -2.1875 13.5 C4.9369471 15.43654499 4.9369471 15.43654499 7 19 C7.60543051 22.13295593 7.65236752 24.87198138 7 28 C4.91766171 30.77645105 3.35320968 32.39338877 0.1875 33.8125 C-6.5442083 34.38950357 -11.06202293 34.32526716 -17 31 C-18.4375 28.8125 -18.4375 28.8125 -19 27 C-17.68 25.68 -16.36 24.36 -15 23 C-14.484375 23.309375 -13.96875 23.61875 -13.4375 23.9375 C-10.30344583 25.30362618 -7.39293507 25.68583935 -4 26 C-3.34 25.67 -2.68 25.34 -2 25 C-2.33 24.01 -2.66 23.02 -3 22 C-5.17051124 21.19207919 -5.17051124 21.19207919 -7.75 20.6875 C-13.07000536 19.22411744 -15.19470013 17.76900978 -18 13 C-18.66026381 9.8307337 -18.69114546 8.09007869 -16.9375 5.32421875 C-11.98352886 -0.85350121 -7.52046407 -0.6068386 0 0 Z " fill="#EA0B1E" transform="translate(241,308)"/>
<path d="M0 0 C3.81403632 1.5891818 5.75033707 3.56630395 8 7 C6.35 8.32 4.7 9.64 3 11 C2.484375 10.67 1.96875 10.34 1.4375 10 C-1.90236837 8.62979759 -4.42599644 8.6101087 -8 9 C-10.84571832 11.29493413 -10.97844278 12.80239215 -11.375 16.4375 C-10.97163968 20.26942305 -10.64432803 22.18507016 -8 25 C-4.43260646 25.4540319 -2.05621954 25.59024033 1.125 23.8125 C1.74375 23.544375 2.3625 23.27625 3 23 C5.75 24.375 5.75 24.375 8 26 C6.70989008 28.87793751 5.42638194 30.96183917 3 33 C-2.55498136 34.85166045 -8.01094395 34.88402491 -13.375 32.5 C-18.116165 27.98460476 -20.20739273 23.51056423 -20.4375 16.9375 C-20.14822317 10.85335509 -18.46955244 6.72672411 -14.5 2.0625 C-10.21750445 -1.18962068 -5.09972205 -0.71629684 0 0 Z " fill="#EA091C" transform="translate(271,308)"/>
<path d="M0 0 C4.99413733 3.53953423 8.80978152 7.2129412 10.6875 13.1875 C11.61177635 21.50598713 11.44941811 28.64182102 7 36 C1.76764535 41.69558122 -3.43961596 45.5973515 -11.265625 46.1640625 C-18.7708809 46.41730733 -23.99653556 45.06120109 -30.1875 40.8125 C-36.06503918 34.93496082 -39.05986013 29.18984426 -39.375 20.875 C-39.29077196 13.86535547 -36.98373102 8.43273908 -32.390625 3.1484375 C-23.05487778 -5.54494179 -10.85692718 -6.54638466 0 0 Z M-32.84375 8.25390625 C-36.9782167 14.49750968 -36.79841976 20.64959949 -36 28 C-33.47301578 34.99529967 -28.02256587 39.37677018 -21.625 42.8125 C-14.48524688 45.15138464 -9.61850045 44.38080434 -3.0390625 41.125 C3.89981837 37.29665194 6.56031412 32.31905765 9 25 C9.79185929 18.41848099 8.70217372 13.49899419 5 8 C-0.35515334 1.79929613 -5.5844357 -1.54321749 -13.625 -2.375 C-21.55308456 -2.24187918 -28.0500542 2.21998101 -32.84375 8.25390625 Z " fill="#656565" transform="translate(124,304)"/>
<path d="M0 0 C3.4375 0.5625 3.4375 0.5625 5.375 2 C6.98466406 5.88213097 7.0925201 9.42630567 6.4375 13.5625 C4.8125 16.625 4.8125 16.625 2.4375 18.5625 C-0.5625 19.1875 -0.5625 19.1875 -3.5625 18.5625 C-6.05619699 16.46254464 -7.30595547 14.86092946 -7.9453125 11.625 C-8.15377287 7.95609754 -7.71940079 5.86374951 -6 2.5625 C-3.5625 0.5625 -3.5625 0.5625 0 0 Z " fill="#FEF4F5" transform="translate(205.5625,315.4375)"/>
<path d="M0 0 C2.59065283 3.45420377 4.39468078 6.5112527 6.25 10.375 C6.79140625 11.47585937 7.3328125 12.57671875 7.890625 13.7109375 C10.0667912 20.16281053 7.25912562 25.10882645 4.4375 30.875 C4.10814453 31.56335938 3.77878906 32.25171875 3.43945312 32.9609375 C2.63304639 34.6438733 1.81745506 36.32240293 1 38 C0.67 38 0.34 38 0 38 C0 25.46 0 12.92 0 0 Z " fill="#B02536" transform="translate(0,106)"/>
<path d="M0 0 C5.94 0 11.88 0 18 0 C18 3.3 18 6.6 18 10 C12.06 10 6.12 10 0 10 C0 6.7 0 3.4 0 0 Z " fill="#ECECEC" transform="translate(101,320)"/>
<path d="M0 0 C0.33 0 0.66 0 1 0 C0.97905273 0.95140869 0.95810547 1.90281738 0.93652344 2.88305664 C0.8628865 6.48934237 0.81776255 10.09556536 0.78027344 13.70239258 C0.76043416 15.24905653 0.7333536 16.79564839 0.69824219 18.34204102 C0.45571711 29.31630056 1.67671354 38.51413896 5 49 C5.345946 50.33011663 5.68604234 51.66197179 6 53 C3.36 53 0.72 53 -2 53 C-2.33 35.84 -2.66 18.68 -3 1 C-2.34 1.66 -1.68 2.32 -1 3 C-0.67 2.01 -0.34 1.02 0 0 Z " fill="#6EB476" transform="translate(369,197)"/>
<path d="M0 0 C0.99 0 1.98 0 3 0 C3.0497499 5.53180661 3.08588418 11.06348052 3.10986328 16.59545898 C3.11986873 18.47406282 3.13347733 20.35265129 3.15087891 22.23120117 C3.1753688 24.94453748 3.1865379 27.65766638 3.1953125 30.37109375 C3.20563507 31.19959335 3.21595764 32.02809296 3.22659302 32.88169861 C3.22765235 38.49282417 2.4324465 43.57723935 1 49 C0.67 49 0.34 49 0 49 C-0.16782542 42.1825293 -0.32778898 35.36490729 -0.48217773 28.54711914 C-0.53568563 26.22578716 -0.59102145 23.90449658 -0.64819336 21.58325195 C-0.72985982 18.25481093 -0.80504119 14.92627837 -0.87890625 11.59765625 C-0.90594131 10.55287613 -0.93297638 9.50809601 -0.96083069 8.43165588 C-0.98092697 7.47073532 -1.00102325 6.50981476 -1.02172852 5.51977539 C-1.04171402 4.66928116 -1.06169952 3.81878693 -1.08229065 2.94252014 C-1 1 -1 1 0 0 Z " fill="#5C9C58" transform="translate(397,0)"/>
<path d="M0 0 C-1.99375759 1.99375759 -3.27941316 2.64570975 -5.8125 3.75 C-11.22869965 6.3843766 -14.72502755 10.37191598 -17 16 C-17.3665533 19.33646812 -17.50403739 22.65142348 -17.65625 26.00390625 C-18 29 -18 29 -20 32 C-21.9638698 25.07816381 -21.97563029 18.27177581 -18.9375 11.6875 C-15.02384965 4.69407367 -8.4821101 -2.35614169 0 0 Z " fill="#6F6F6F" transform="translate(106,302)"/>
<path d="M0 0 C5.94915254 5.94915254 5.94915254 5.94915254 6.03515625 11.109375 C5.66415949 16.50240113 4.4268099 19.82357544 1 24 C0.67 24 0.34 24 0 24 C0 16.08 0 8.16 0 0 Z " fill="#EAEAEA" transform="translate(121,313)"/>
<path d="M0 0 C0.33 0 0.66 0 1 0 C3 8 5 16 7 24 C4.36 24 1.72 24 -1 24 C-0.67 16.08 -0.34 8.16 0 0 Z " fill="#7EB976" transform="translate(368,226)"/>
<path d="M0 0 C0.33 0 0.66 0 1 0 C1 7.26 1 14.52 1 22 C-3.2867849 17.7132151 -4.1483 16.84032514 -4.25 11.1875 C-4.21603163 6.48627758 -3.41018443 3.41018443 0 0 Z " fill="#F7F7F7" transform="translate(98,314)"/>
<path d="M0 0 C0.99 0 1.98 0 3 0 C3 2.97 3 5.94 3 9 C2.67 9 2.34 9 2 9 C1.67 15.27 1.34 21.54 1 28 C0.34 27.67 -0.32 27.34 -1 27 C-1 20.07 -1 13.14 -1 6 C-2.32 7.65 -3.64 9.3 -5 11 C-5.66 11 -6.32 11 -7 11 C-5.50897439 6.39137539 -3.30545582 3.46669756 0 0 Z " fill="#818181" transform="translate(99,309)"/>
<path d="M0 0 C1.47906892 -0.02689216 2.95827483 -0.04634621 4.4375 -0.0625 C5.26121094 -0.07410156 6.08492187 -0.08570313 6.93359375 -0.09765625 C9 0 9 0 10 1 C10 2.65 10 4.3 10 6 C6.7 6 3.4 6 0 6 C0 4.02 0 2.04 0 0 Z " fill="#FDEAEB" transform="translate(168,328)"/>
<path d="M0 0 C2.64 0 5.28 0 8 0 C8.625 2.375 8.625 2.375 9 5 C7 7 7 7 3.375 7.125 C2.26125 7.08375 1.1475 7.0425 0 7 C0 4.69 0 2.38 0 0 Z " fill="#FBD5D8" transform="translate(168,315)"/>
<path d="M0 0 C0.66 0 1.32 0 2 0 C1.88613541 2.77170395 1.75939222 5.54178046 1.625 8.3125 C1.5940625 9.09818359 1.563125 9.88386719 1.53125 10.69335938 C1.49257812 11.45068359 1.45390625 12.20800781 1.4140625 12.98828125 C1.3826416 13.68477783 1.3512207 14.38127441 1.31884766 15.09887695 C1 17 1 17 -1 20 C-1.93940903 16.8060093 -2.16444357 13.88723695 -2.1875 10.5625 C-2.20167969 9.63566406 -2.21585937 8.70882813 -2.23046875 7.75390625 C-1.98507562 4.82166627 -1.22201577 2.66138611 0 0 Z " fill="#757575" transform="translate(87,314)"/>
<path d="M0 0 C0.886875 0.165 1.77375 0.33 2.6875 0.5 C8.41790827 1.34061774 14.22424581 1.0781681 20 1 C19.67 1.66 19.34 2.32 19 3 C12.73875963 5.08708012 6.055584 4.54971958 0 2 C0 1.34 0 0.68 0 0 Z " fill="#616161" transform="translate(99,346)"/>
<path d="M0 0 C0.33 0 0.66 0 1 0 C1 2.97 1 5.94 1 9 C-3.59517784 7.85120554 -4.40906725 6.79386581 -7 3 C-7 2.34 -7 1.68 -7 1 C-5.02 1.99 -5.02 1.99 -3 3 C-3 3.66 -3 4.32 -3 5 C-2.34 5 -1.68 5 -1 5 C-0.67 3.35 -0.34 1.7 0 0 Z " fill="#777777" transform="translate(101,332)"/>
<path d="M0 0 C3 1 3 1 4.75 3.25 C6.18671298 6.41076857 6.02214896 7.74770785 5 11 C2.56097476 8.56097476 1.40821408 6.13647681 0 3 C0 2.01 0 1.02 0 0 Z " fill="#707070" transform="translate(128,309)"/>
<path d="M0 0 C3.07388417 4.00941413 4.1276781 6.04110792 4.0625 11.125 C4.05347656 12.03507812 4.04445312 12.94515625 4.03515625 13.8828125 C4.02355469 14.58148438 4.01195312 15.28015625 4 16 C3.67 16 3.34 16 3 16 C2.8046875 14.01432292 2.609375 12.02864583 2.4140625 10.04296875 C2.07334609 7.70011858 2.07334609 7.70011858 0 5 C-0.125 2.3125 -0.125 2.3125 0 0 Z " fill="#757575" transform="translate(125,314)"/>
<path d="M0 0 C-2.35277269 2.72426311 -4.62496331 3.8141763 -8 5 C-8.66 4.01 -9.32 3.02 -10 2 C-3.375 -1.125 -3.375 -1.125 0 0 Z " fill="#797979" transform="translate(126,344)"/>
<path d="M0 0 C2.72426311 2.35277269 3.8141763 4.62496331 5 8 C4.01 8 3.02 8 2 8 C-0.1519437 4.77208445 -0.20086443 3.71599191 0 0 Z " fill="#686868" transform="translate(87,331)"/>
<path d="M0 0 C0.33 0 0.66 0 1 0 C1.08114106 1.77007714 1.13925505 3.54122098 1.1875 5.3125 C1.23970703 6.79169922 1.23970703 6.79169922 1.29296875 8.30078125 C1 11 1 11 -0.51171875 12.85546875 C-1.00285156 13.23316406 -1.49398437 13.61085938 -2 14 C-1.33333333 9.33333333 -0.66666667 4.66666667 0 0 Z " fill="#575757" transform="translate(127,321)"/>
<path d="M0 0 C-1.28519565 2.86697492 -2.57129254 4.97607712 -5 7 C-5.66 7 -6.32 7 -7 7 C-3.86206897 0 -3.86206897 0 0 0 Z " fill="#EB1A2A" transform="translate(199,309)"/>
</svg>
